<?xml version="1.0" encoding="UTF-8"?>
<!DOCTYPE svg PUBLIC "-//W3C//DTD SVG 1.1//EN" "http://www.w3.org/Graphics/SVG/1.1/DTD/svg11.dtd">
<svg version="1.1" xmlns="http://www.w3.org/2000/svg" xmlns:xlink="http://www.w3.org/1999/xlink" x="0" y="0" width="60" height="60" viewBox="0, 0, 60, 60">
  <g id="root">
    <path d="M9.483,18.155 L9.483,41.845 L30,53.691 L50.517,41.845 L50.517,18.155 L30,6.309 L9.483,18.155 z M30,4 L52.517,17 L52.517,43 L30,56 L7.483,43 L7.483,17 L30,4 z M38.2,34.02 L38.2,37.23 L41.08,35.64 L41.08,32.46 z M34.36,35.64 L36.82,37.005 C36.835,37.009 36.85,37.014 36.865,37.02 L36.895,37.035 C36.901,37.041 36.904,37.044 36.91,37.05 L37.24,37.23 L37.24,34.02 L34.36,32.46 z M24.76,34.02 L24.76,37.23 L25.045,37.08 C25.054,37.069 25.064,37.059 25.075,37.05 C25.103,37.031 25.133,37.016 25.165,37.005 C25.174,36.999 25.186,36.994 25.195,36.99 L25.21,36.99 L27.64,35.64 L27.64,32.46 z M20.92,35.64 L23.8,37.23 L23.8,34.02 L20.92,32.46 z M34.87,31.65 L37.72,33.195 L40.57,31.65 L39.46,31.035 C39.428,31.024 39.398,31.009 39.37,30.99 L37.72,30.075 z M22.675,30.96 C22.666,30.966 22.654,30.971 22.645,30.975 L22.63,30.99 C22.621,30.996 22.609,31.001 22.6,31.005 L22.51,31.05 L21.43,31.65 L24.28,33.195 L27.13,31.65 L24.28,30.075 z M22.84,26.445 L22.84,29.76 L24.04,29.1 C24.087,29.072 24.137,29.051 24.19,29.04 C24.205,29.04 24.22,29.04 24.235,29.04 C24.334,29.031 24.434,29.051 24.52,29.1 L28.165,31.125 C28.36,31.099 28.551,31.194 28.647,31.367 C28.744,31.539 28.726,31.753 28.6,31.905 L28.6,35.925 C28.602,36.098 28.51,36.259 28.36,36.345 L26.38,37.44 L31,40.005 L35.62,37.44 L33.64,36.345 C33.49,36.259 33.398,36.098 33.4,35.925 L33.4,31.65 C33.4,31.641 33.4,31.629 33.4,31.62 C33.402,31.584 33.406,31.549 33.415,31.515 C33.419,31.506 33.424,31.494 33.43,31.485 C33.43,31.479 33.43,31.476 33.43,31.47 C33.436,31.464 33.439,31.461 33.445,31.455 C33.467,31.404 33.497,31.359 33.535,31.32 C33.544,31.309 33.554,31.299 33.565,31.29 C33.571,31.284 33.574,31.281 33.58,31.275 C33.589,31.264 33.599,31.254 33.61,31.245 C33.619,31.239 33.631,31.234 33.64,31.23 L37.48,29.1 C37.527,29.072 37.577,29.051 37.63,29.04 C37.645,29.04 37.66,29.04 37.675,29.04 C37.774,29.031 37.874,29.051 37.96,29.1 L39.16,29.76 L39.16,26.445 L35.32,24.315 L35.32,25.845 C35.322,26.018 35.23,26.179 35.08,26.265 L31.315,28.35 C31.306,28.356 31.294,28.361 31.285,28.365 L31.24,28.395 C31.231,28.401 31.219,28.406 31.21,28.41 C31.204,28.416 31.201,28.419 31.195,28.425 C31.189,28.425 31.186,28.425 31.18,28.425 C31.141,28.44 31.101,28.449 31.06,28.455 C31.051,28.455 31.039,28.455 31.03,28.455 C31.021,28.455 31.009,28.455 31,28.455 C30.994,28.455 30.991,28.455 30.985,28.455 C30.976,28.455 30.964,28.455 30.955,28.455 C30.949,28.455 30.946,28.455 30.94,28.455 C30.931,28.455 30.919,28.455 30.91,28.455 C30.904,28.449 30.901,28.446 30.895,28.44 C30.886,28.44 30.874,28.44 30.865,28.44 C30.859,28.44 30.856,28.44 30.85,28.44 C30.841,28.436 30.829,28.431 30.82,28.425 C30.814,28.419 30.811,28.416 30.805,28.41 C30.796,28.41 30.784,28.41 30.775,28.41 C30.769,28.404 30.766,28.401 30.76,28.395 L26.92,26.265 C26.77,26.179 26.678,26.018 26.68,25.845 L26.68,24.315 z M31.48,23.94 L31.48,27.15 L34.36,25.56 L34.36,23.61 C34.334,23.522 34.334,23.428 34.36,23.34 L34.36,22.38 z M27.64,23.34 C27.668,23.432 27.668,23.533 27.64,23.625 L27.64,25.56 L30.52,27.15 L30.52,23.94 L27.64,22.38 z M28.15,21.57 L31,23.115 L33.85,21.57 L31,19.995 z M30.91,18.96 C30.925,18.96 30.94,18.96 30.955,18.96 C31.054,18.951 31.154,18.971 31.24,19.02 L34.885,21.045 C35.08,21.019 35.271,21.114 35.367,21.287 C35.464,21.459 35.446,21.673 35.32,21.825 L35.32,23.205 L39.88,25.74 C40.03,25.826 40.122,25.988 40.12,26.16 L40.12,30.3 L41.605,31.125 C41.8,31.099 41.991,31.194 42.087,31.367 C42.184,31.539 42.166,31.753 42.04,31.905 L42.04,35.925 C42.042,36.098 41.95,36.259 41.8,36.345 L38.035,38.43 C38.026,38.436 38.014,38.441 38.005,38.445 L37.96,38.475 C37.951,38.481 37.939,38.486 37.93,38.49 C37.924,38.496 37.921,38.499 37.915,38.505 C37.909,38.505 37.906,38.505 37.9,38.505 C37.861,38.52 37.821,38.529 37.78,38.535 C37.771,38.535 37.759,38.535 37.75,38.535 C37.741,38.535 37.729,38.535 37.72,38.535 C37.714,38.535 37.711,38.535 37.705,38.535 C37.696,38.535 37.684,38.535 37.675,38.535 C37.669,38.535 37.666,38.535 37.66,38.535 C37.651,38.535 37.639,38.535 37.63,38.535 C37.624,38.529 37.621,38.526 37.615,38.52 C37.606,38.52 37.594,38.52 37.585,38.52 C37.579,38.52 37.576,38.52 37.57,38.52 C37.561,38.516 37.549,38.511 37.54,38.505 C37.534,38.499 37.531,38.496 37.525,38.49 C37.516,38.49 37.504,38.49 37.495,38.49 C37.48,38.481 37.465,38.471 37.45,38.46 L36.61,37.995 L31.24,40.98 C31.092,41.066 30.908,41.066 30.76,40.98 L25.39,37.995 L24.595,38.43 C24.586,38.436 24.574,38.441 24.565,38.445 L24.52,38.475 C24.511,38.481 24.499,38.486 24.49,38.49 C24.484,38.496 24.481,38.499 24.475,38.505 C24.469,38.505 24.466,38.505 24.46,38.505 C24.421,38.52 24.381,38.529 24.34,38.535 C24.331,38.535 24.319,38.535 24.31,38.535 C24.301,38.535 24.289,38.535 24.28,38.535 C24.274,38.535 24.271,38.535 24.265,38.535 C24.256,38.535 24.244,38.535 24.235,38.535 C24.229,38.535 24.226,38.535 24.22,38.535 C24.211,38.535 24.199,38.535 24.19,38.535 C24.184,38.529 24.181,38.526 24.175,38.52 C24.166,38.52 24.154,38.52 24.145,38.52 C24.139,38.52 24.136,38.52 24.13,38.52 C24.121,38.516 24.109,38.511 24.1,38.505 C24.094,38.499 24.091,38.496 24.085,38.49 C24.076,38.49 24.064,38.49 24.055,38.49 C24.049,38.484 24.046,38.481 24.04,38.475 L24.01,38.46 L20.2,36.345 C20.05,36.259 19.958,36.098 19.96,35.925 L19.96,31.71 C19.956,31.68 19.956,31.65 19.96,31.62 C19.964,31.599 19.969,31.579 19.975,31.56 C19.975,31.551 19.975,31.539 19.975,31.53 C19.975,31.524 19.975,31.521 19.975,31.515 C19.979,31.506 19.984,31.494 19.99,31.485 C19.99,31.479 19.99,31.476 19.99,31.47 C19.996,31.464 19.999,31.461 20.005,31.455 C20.009,31.446 20.014,31.434 20.02,31.425 C20.024,31.416 20.029,31.404 20.035,31.395 C20.044,31.38 20.054,31.365 20.065,31.35 C20.074,31.339 20.084,31.329 20.095,31.32 C20.104,31.309 20.114,31.299 20.125,31.29 C20.131,31.284 20.134,31.281 20.14,31.275 C20.146,31.269 20.149,31.266 20.155,31.26 C20.17,31.249 20.185,31.239 20.2,31.23 L20.26,31.2 L21.88,30.3 L21.88,26.16 C21.878,25.988 21.97,25.826 22.12,25.74 L26.68,23.205 L26.68,21.63 C26.676,21.6 26.676,21.57 26.68,21.54 C26.684,21.519 26.689,21.499 26.695,21.48 C26.695,21.471 26.695,21.459 26.695,21.45 C26.695,21.444 26.695,21.441 26.695,21.435 C26.699,21.426 26.704,21.414 26.71,21.405 C26.71,21.399 26.71,21.396 26.71,21.39 C26.716,21.384 26.719,21.381 26.725,21.375 C26.729,21.366 26.734,21.354 26.74,21.345 C26.744,21.336 26.749,21.324 26.755,21.315 C26.772,21.289 26.792,21.263 26.815,21.24 C26.824,21.229 26.834,21.219 26.845,21.21 C26.851,21.204 26.854,21.201 26.86,21.195 C26.866,21.189 26.869,21.186 26.875,21.18 C26.89,21.169 26.905,21.159 26.92,21.15 L30.76,19.02 C30.807,18.992 30.857,18.971 30.91,18.96 z" fill="#000000"/>
  </g>
</svg>
