<?xml version="1.0" encoding="UTF-8"?>
<!DOCTYPE svg PUBLIC "-//W3C//DTD SVG 1.1//EN" "http://www.w3.org/Graphics/SVG/1.1/DTD/svg11.dtd">
<svg version="1.1" xmlns="http://www.w3.org/2000/svg" xmlns:xlink="http://www.w3.org/1999/xlink" x="0" y="0" width="128" height="128" viewBox="0, 0, 128, 128">
  <g id="Layer_1">
    <path d="M63.994,121.389 C62.902,121.389 61.939,120.653 61.639,119.603 L59.413,111.491 L27.549,92.036 C27.082,91.752 26.727,91.312 26.529,90.802 C25.989,89.341 13.355,54.768 18.714,29.144 C18.899,28.279 19.538,27.57 20.389,27.3 L34.923,22.834 L33.336,17.103 C33.165,16.48 33.25,15.8 33.577,15.245 C33.903,14.68 34.441,14.267 35.066,14.098 L63.384,6.696 C63.583,6.64 63.78,6.611 63.994,6.611 C64.207,6.611 64.419,6.64 64.618,6.696 L92.923,14.098 C93.546,14.267 94.085,14.68 94.425,15.247 C94.738,15.8 94.824,16.48 94.652,17.105 L93.078,22.834 L107.613,27.301 C108.45,27.57 109.103,28.279 109.286,29.144 C114.647,54.812 101.999,89.341 101.46,90.803 C101.275,91.312 100.92,91.752 100.453,92.036 L68.589,111.492 L66.349,119.603 C66.065,120.653 65.087,121.389 63.994,121.389 z M46.405,75.704 C52.869,75.704 58.109,70.464 58.109,64 C58.109,57.536 52.869,52.296 46.405,52.296 C39.941,52.296 34.701,57.536 34.701,64 C34.701,70.464 39.941,75.704 46.405,75.704 z M81.595,75.704 C88.059,75.704 93.299,70.464 93.299,64 C93.299,57.536 88.059,52.296 81.595,52.296 C75.131,52.296 69.891,57.536 69.891,64 C69.891,70.464 75.131,75.704 81.595,75.704 z" fill="#E86E48" id="Layer_1"/>
  </g>
</svg>
